# Blender v2.82 (sub 7) OBJ File: ''
# www.blender.org
mtllib parabrezza.mtl
o parabrezza
v 4.263016 5.650959 21.083521
v 3.549931 6.656664 21.084110
v 3.629265 6.283988 25.012205
v 1.800676 6.782228 17.770954
v 3.192900 6.653918 18.712534
v 3.357616 5.442280 15.640818
v 4.018095 5.584822 24.991215
v 3.536489 5.653656 29.470396
v 4.276876 5.346683 16.630035
v 2.630761 3.992409 12.532442
v 4.441996 3.992409 13.272617
v 4.526340 4.291717 24.970575
v 4.816576 4.225688 21.084091
v 2.201506 5.537875 15.315182
v 5.090266 3.992409 14.505093
v -3.629265 6.283988 25.012203
v -3.549930 6.656664 21.084108
v -4.263030 5.650959 21.083519
v -3.357614 5.442280 15.640817
v -3.192899 6.653918 18.712534
v -1.800675 6.782228 17.770954
v -4.018095 5.584822 24.991215
v -3.536490 5.653656 29.470394
v -4.276875 5.346683 16.630035
v -4.441994 3.992409 13.272614
v -2.630759 3.992409 12.532441
v -4.816575 4.225688 21.084089
v -4.526340 4.291717 24.970575
v -2.201504 5.537875 15.315181
v -5.090264 3.992409 14.505092
v 0.000001 3.992409 12.348797
v 0.000001 6.854303 17.644728
v -4.816575 4.225688 21.051195
v -5.090264 3.994748 14.537987
v -3.549930 6.656664 21.084108
v -3.629265 6.283988 25.012203
v -4.526340 4.291717 24.970575
v -4.816575 4.225688 21.084089
v -3.536490 5.653656 29.470394
v -3.192899 6.653918 18.712534
v 3.629265 6.283988 25.012205
v 3.549931 6.656664 21.084110
v 4.816576 4.225688 21.084091
v 4.526340 4.291717 24.970575
v 3.536489 5.653656 29.470396
v 1.800676 6.782228 17.770954
v 3.192900 6.653918 18.712549
v 2.630761 3.992409 12.532442
v 4.441996 3.992409 13.272617
v 5.090266 3.992409 14.505108
v 4.816576 4.225688 21.051195
v 5.090266 3.994748 14.538002
vn 0.8777 0.4787 0.0212
vn 0.8000 0.5999 -0.0102
vn 0.8673 0.4926 0.0716
vn 0.1839 0.8990 -0.3976
vn 0.5594 0.8054 -0.1958
vn 0.3099 0.8720 -0.3788
vn 0.9028 0.4231 0.0769
vn 0.9080 0.4088 0.0913
vn 0.6549 0.7336 -0.1815
vn 0.1076 0.8770 -0.4683
vn 0.3176 0.8609 -0.3974
vn 0.9284 0.3637 0.0764
vn 0.9311 0.3620 0.0445
vn 0.1080 0.8835 -0.4557
vn 0.6335 0.7370 -0.2356
vn 0.0000 0.8805 -0.4741
vn -0.1080 0.8835 -0.4557
vn -0.0000 0.8857 -0.4643
vn -0.8673 0.4926 0.0717
vn -0.8000 0.5999 -0.0103
vn -0.8777 0.4787 0.0212
vn -0.3099 0.8720 -0.3788
vn -0.5594 0.8054 -0.1958
vn -0.1839 0.8990 -0.3976
vn -0.9028 0.4231 0.0769
vn -0.9080 0.4088 0.0913
vn -0.6549 0.7336 -0.1815
vn -0.3176 0.8609 -0.3974
vn -0.1076 0.8770 -0.4683
vn -0.9311 0.3620 0.0445
vn -0.9284 0.3637 0.0764
vn -0.6335 0.7370 -0.2356
usemtl Default_OBJ
s 1
f 1//1 2//2 3//3
f 4//4 5//5 6//6
f 7//7 1//1 3//3
f 7//7 3//3 8//8
f 5//5 2//2 9//9
f 10//10 6//6 11//11
f 12//12 13//13 7//7
f 12//12 7//7 8//8
f 10//10 14//14 6//6
f 6//6 9//9 11//11
f 11//11 9//9 15//15
f 13//13 1//1 7//7
f 15//15 1//1 13//13
f 14//14 4//4 6//6
f 6//6 5//5 9//9
f 15//15 9//9 1//1
f 31//16 29//17 14//14
f 32//18 4//4 14//14
f 1//1 9//9 2//2
f 16//19 17//20 18//21
f 19//22 20//23 21//24
f 16//19 18//21 22//25
f 23//26 16//19 22//25
f 24//27 17//20 20//23
f 25//28 19//22 26//29
f 22//25 27//30 28//31
f 23//26 22//25 28//31
f 19//22 29//17 26//29
f 25//28 24//27 19//22
f 30//32 24//27 25//28
f 22//25 18//21 27//30
f 27//30 18//21 30//32
f 19//22 21//24 29//17
f 24//27 20//23 19//22
f 18//21 24//27 30//32
f 29//17 21//24 32//18
f 17//20 24//27 18//21
f 10//10 31//16 14//14
f 31//16 26//29 29//17
f 14//14 29//17 32//18
l 51 52
l 49 50
l 42 47
l 41 45
l 48 49
l 46 47
l 44 45
l 43 44
l 41 42
l 35 40
l 36 39
l 37 39
l 37 38
l 35 36
l 33 34
l 46 32
